<?xml version="1.0" encoding="utf-8"?>
<!-- Generator: Adobe Illustrator 16.0.3, SVG Export Plug-In . SVG Version: 6.00 Build 0)  -->
<!DOCTYPE svg PUBLIC "-//W3C//DTD SVG 1.1//EN" "http://www.w3.org/Graphics/SVG/1.1/DTD/svg11.dtd">
<svg version="1.1" id="Capa_1" xmlns="http://www.w3.org/2000/svg" xmlns:xlink="http://www.w3.org/1999/xlink" x="0px" y="0px"
	 width="283.46px" height="170.218px" viewBox="0 0 283.46 170.218" enable-background="new 0 0 283.46 170.218"
	 xml:space="preserve">
<g>
	<path fill="#040304" d="M2.517,37.996c1.9-0.377,3.617,0.09,5.335,0.162c2.214,0.082,4.479-0.762,6.705-1.268
		c2.428-0.562,4.827-1.333,7.275-1.77c3.464-0.621,6.97-1.22,10.477-1.43c3.341-0.198,6.724,0.141,10.087,0.223
		c0.926,0.017,1.86-0.095,2.764,0.017c2.856,0.347,5.723,0.711,8.567,1.161c3.412,0.536,6.798,1.218,10.221,1.718
		c3.282,0.476,6.575,1.098,9.866,1.084c2.469-0.009,4.929-0.891,7.386-1.431c1.952-0.428,3.953-0.754,5.834-1.423
		c2.834-1.007,5.578-2.266,8.351-3.423c0.203-0.094,0.417-0.347,0.588-0.317c1.831,0.287,3.212-1.024,4.859-1.298
		c0.69-0.125,1.524-0.125,2.124,0.171c0.589,0.296,1.127,0.852,0.334,1.757c-3.901,4.408-8.932,7.052-14.255,9.229
		c-2.204,0.891-4.471,1.662-6.747,2.365c-1.392,0.428-2.886,0.509-4.297,0.904c-3.618,1.006-7.175,2.207-10.813,3.098
		c-2.194,0.54-4.49,0.711-6.757,0.948c-1.29,0.132-1.871,0.621-1.89,1.932c-0.092,4.624-0.203,9.247-0.285,13.878
		c-0.111,6.521-0.649,13.076-0.171,19.56c0.508,7.029,0.264,14.039,0.476,21.053c0.133,4.151,0.356,8.298,0.581,12.446
		c0.171,3.27,0.375,6.552,0.579,9.824c0.173,2.734,0.355,5.477,0.589,8.218c0.266,3.142,0.622,6.27,0.855,9.41
		c0.244,3.222,0.487,6.452,0.567,9.684c0.051,2.305,0.051,4.653-0.345,6.911c-0.233,1.298-1.159,2.579-2.042,3.637
		c-0.762,0.904-2.012,0.55-2.53-0.599c-0.57-1.261-0.863-2.674-1.515-3.895c-0.578-1.084-1.574-1.96-2.193-3.038
		c-0.986-1.716-1.738-3.574-2.755-5.271c-1.015-1.688-2.194-3.294-3.363-4.88c-2.012-2.722-3.383-5.699-3.282-9.121
		c0.062-1.984,0.5-3.956,0.844-5.905c0.437-2.481,0.893-4.971,1.474-7.416c0.526-2.237,1.208-4.451,1.849-6.668
		c0.711-2.445,1.138-4.837,0.853-7.477c-0.324-3.029,0.081-6.126,0.203-9.207c0.063-1.668,0.245-3.321,0.274-4.979
		c0.123-5.788,0.296-11.579,0.275-17.372c-0.009-3.333-0.476-6.645-0.516-9.966c-0.052-3.65,0.089-7.306,0.293-10.965
		c0.093-1.735,0.538-3.466,0.774-5.201c0.049-0.377,0-0.896-0.236-1.14c-0.162-0.163-0.761-0.069-1.067,0.094
		c-2.683,1.388-5.313,2.875-8.017,4.233c-2.417,1.221-5.02,1.843-7.71,2.177c-1.048,0.119-2.074,0.51-3.122,0.548
		c-1.616,0.052-3.23,0.236-4.764-0.801c-1.716-1.169-3.679-1.954-5.305-3.312c-1.675-1.405-3.454-2.674-5.182-4.023
		c-1.432-1.131-2.865-2.258-4.268-3.428c-2.531-2.112-5.08-4.216-7.539-6.41C1.928,40.22,1.063,39.195,2.517,37.996"/>
	<path fill="#040304" d="M206.721,97.212c-4.289-3.252-8.467-6.465-12.529-9.807c-2.043-1.674-3.852-3.624-5.783-5.431
		c-0.373-0.347-0.771-0.703-1.218-0.917c-0.955-0.467-1.696-0.021-1.748,1.038c-0.124,2.295-0.296,4.583-0.274,6.875
		c0.021,3.944-0.082,7.917,0.334,11.829c0.541,5.129,1.14,10.24,1.158,15.411c0.012,2.897,0.488,5.802,0.856,8.677
		c0.162,1.354,0.549,2.688,0.892,4.007c0.549,2.073-0.841,4.022-2.966,3.882c-1.422-0.103-2.845-0.073-4.245-0.794
		c-2.022-1.049-3.231-2.488-3.639-4.725c-0.509-2.785-0.985-5.601-1.777-8.3c-0.651-2.236-1.761-4.331-2.636-6.496
		c-0.231-0.578-0.497-1.208-0.497-1.829c-0.017-2.927-0.355-5.84,0.377-8.766c0.814-3.244,1.646-6.543,1.852-9.855
		c0.313-5.044,0.11-10.11,0.038-15.17c-0.008-0.558-0.458-1.208-0.873-1.658c-1.248-1.35-2.581-2.63-3.892-3.912
		c-0.253-0.253-0.659-0.364-0.883-0.638c-0.295-0.386-0.488-0.866-0.725-1.299c0.489,0.009,1.089-0.146,1.453,0.069
		c1.23,0.703,2.378,1.547,3.558,2.348c0.316,0.202,0.599,0.438,0.895,0.66c0.072-0.395,0.223-0.792,0.193-1.187
		c-0.163-2.786-0.445-5.57-0.549-8.364c-0.103-2.724-0.091-5.445-0.009-8.17c0.143-4.684,0.407-9.366,0.548-14.049
		c0.082-2.542-0.063-5.095,0.039-7.631c0.082-2.104,0.387-4.221,0.549-6.319c0.124-1.568,0.142-3.141,0.316-4.696
		c0.224-2.022,0.549-4.045,0.861-6.057c0.164-1.056-0.18-1.868-1.066-2.459c-3.607-2.449-7.211-4.887-10.811-7.346
		c-0.913-0.63-1.778-1.331-2.622-2.062c-0.18-0.154-0.326-0.67-0.231-0.762c0.201-0.204,0.601-0.377,0.853-0.315
		c3.964,1.026,7.764,2.297,11.127,4.857c3.209,2.448,6.826,4.349,10.271,6.493c1.199,0.752,2.438,1.422,3.587,2.256
		c2.134,1.542,2.052,3.586,1.354,5.883c-0.479,1.572-0.724,3.269-0.783,4.928c-0.185,5.009-0.121,10.03-0.365,15.039
		c-0.133,2.579-0.814,5.12-1.097,7.691c-0.295,2.639-0.419,5.313-0.613,7.965c-0.2,2.905-0.445,5.801-0.564,8.707
		c-0.095,2.053-0.052,4.117,0,6.179c0.016,1.127,0.098,2.275,0.32,3.376c0.074,0.385,0.613,0.86,1.008,0.934
		c0.376,0.068,1.015-0.193,1.251-0.531c2.579-3.638,5.128-7.284,7.64-10.982c2.356-3.488,4.623-7.032,6.979-10.52
		c2.503-3.698,5.06-7.335,7.55-11.033c0.146-0.214,0.072-0.831-0.111-0.963c-1.615-1.221-3.292-2.37-4.949-3.535
		c-0.03-0.022-0.111,0.008-0.129-0.013c-0.582-0.742-1.161-1.483-1.748-2.215c0.822,0.162,1.766,0.124,2.446,0.526
		c2.876,1.68,5.622,3.556,8.506,5.194c1.838,1.049,3.222,2.45,4.623,3.993c1.169,1.289,1.466,3.792,0.398,5.459
		c-1.812,2.832-3.783,5.578-5.874,8.218c-1.118,1.392-2.675,2.437-3.934,3.74c-1.105,1.158-2.073,2.438-3.119,3.66
		c-0.348,0.403-0.682,0.904-1.141,1.113c-2.415,1.161-3.959,3.253-5.749,5.112c-1.218,1.273-2.905,2.082-4.35,3.141
		c-0.831,0.609-1.512,1.453-2.742,1.178c-0.325-0.068-0.702,0.112-1.059,0.164c0.258,0.326,0.451,0.754,0.776,0.964
		c1.148,0.732,2.356,1.362,3.513,2.065c3.223,1.958,6.401,3.994,9.662,5.903c1.628,0.95,3.407,1.654,5.061,2.57
		c3.119,1.727,6.037,3.728,7.876,6.907c1.4,2.42,0.334,4.074-2.447,4.199c-2.814,0.12-4.828-1.526-6.984-2.88
		C208.031,98.317,207.471,97.73,206.721,97.212"/>
	<path fill="#040304" d="M277.67,110.409c-1.623,3.119-3.046,6.251-4.785,9.187c-1.017,1.718-2.426,3.252-3.869,4.652
		c-1.607,1.577-3.505,2.845-5.151,4.393c-0.938,0.882-1.849,1.35-3.153,1.26c-1.319-0.104-2.669-0.164-3.98,0
		c-4.298,0.548-7.682-1.616-11.299-3.377c-3.842-1.867-6.769-4.622-8.891-8.18c-1.354-2.266-2.133-4.846-3.303-7.225
		c-1.491-3.023-1.949-6.327-2.559-9.57c-0.591-3.149-0.886-6.359-1.199-9.56c-0.287-2.927-0.629-5.872-0.54-8.798
		c0.103-2.905,0.63-5.811,1.127-8.698c0.479-2.794,0.844-5.647,1.809-8.292c1.079-2.935,2.675-5.711,4.259-8.432
		c2.124-3.659,4.469-7.186,6.668-10.81c1.632-2.717,3.178-5.489,4.742-8.244c0.153-0.261,0.184-0.609,0.325-0.883
		c0.437-0.823,0.831-2.288,1.362-2.348c1.534-0.15,3.27-0.06,4.675,0.54c2.275,0.985,4.327,2.469,6.482,3.72
		c3.913,2.266,6.839,5.558,9.538,9.105c0.622,0.81,0.702,1.757,0.369,2.652c-1.504,4.041,0,7.438,2.202,10.72
		c1.251,1.855,2.712,3.634,3.548,5.668c1.087,2.661,1.606,5.557,2.446,8.321c0.908,2.978,1.933,5.913,2.866,8.869
		c0.214,0.703,0.316,1.464,0.316,2.191c0.01,2.909,0.173,5.771-0.163,8.689c-0.294,2.55-0.449,5.09-1.288,7.528
		C279.419,105.786,278.573,108.053,277.67,110.409 M241.427,103.186c0.196,1.911,0.613,3.843,0.538,5.732
		c-0.131,3.299,1.24,6.187,2.166,9.194c0.681,2.202,1.932,3.964,4.288,4.796c1.045,0.376,2.022,1.058,2.927,1.726
		c3.008,2.259,6.422,1.791,9.624,1.046c2.55-0.587,4.357-2.884,5.697-4.988c2.958-4.622,5.823-9.297,7.378-14.722
		c1.401-4.858,1.757-9.772,2.061-14.722c0.083-1.312-0.423-2.653-0.525-3.984c-0.267-3.636-1.067-7.162-2.319-10.564
		c-1.298-3.548-2.749-7.022-4.095-10.548c-0.729-1.941-1.646-3.72-3.3-5.061c-1.171-0.934-1.576-0.883-2.339,0.437
		c-0.253,0.45-0.567,0.853-0.922,1.221c-2.005,2.031-4.097,3.972-6.017,6.084c-1.474,1.606-2.875,3.333-4.035,5.171
		c-2.062,3.266-3.809,6.71-5.904,9.949c-2.001,3.088-3.209,6.459-4.105,9.965c-0.223,0.895-0.437,1.79-0.518,2.703
		C241.834,98.756,241.723,100.902,241.427,103.186"/>
	<path fill="#040304" d="M126.276,97.14c1.553,2.134,3.057,4.178,4.49,6.268c0.692,1.008,1.23,2.125,1.86,3.163
		c0.285,0.467,0.6,0.925,0.944,1.362c0.844,1.066,1.677,2.142,2.59,3.149c0.314,0.342,0.844,0.505,1.292,0.721
		c1.056,0.496,2.164,0.916,3.16,1.503c0.293,0.171,0.456,0.835,0.396,1.238c-0.03,0.206-0.671,0.45-1.037,0.458
		c-1.959,0.061-3.842-0.008-5.72-0.985c-1.282-0.66-2.979-0.526-4.472-0.801c-2.519-0.467-4.471-2.045-6.401-3.54
		c-1.737-1.35-3.222-3.016-4.867-4.49c-2.296-2.061-4.765-3.929-6.91-6.136c-1.849-1.901-3.404-4.083-4.938-6.246
		c-1.016-1.423-1.86-3.008-2.631-4.594c-0.662-1.362-1.859-1.457-2.907-1.14c-2.275,0.689-4.52,0.377-6.797,0.274
		c-2.427-0.111-3.19,0.527-3.728,2.867c-1.311,5.668-3.781,10.831-7.042,15.595c-1.485,2.173-3.393,4.045-5.13,6.046
		c-0.163,0.185-0.469,0.244-0.71,0.364c-0.034-0.23-0.074-0.466-0.093-0.697c-0.021-0.194-0.041-0.378-0.051-0.583
		c-0.163,0.08-0.356,0.124-0.477,0.245c-0.397,0.354-0.701,0.886-1.158,1.088c-0.326,0.141-0.844-0.121-1.271-0.193
		c0.101-0.273,0.112-0.639,0.294-0.792c3.474-2.756,4.907-6.686,6.259-10.67c1.279-3.801,2.561-7.588,3.801-11.41
		c0.171-0.539,0.203-1.076-0.763-1.058c-3.16,0.072-6.319,0.08-9.479,0c-1.048-0.019-2.083-0.335-3.109-0.566
		c-0.235-0.051-0.417-0.325-0.621-0.501c0.204-0.21,0.378-0.505,0.641-0.631c0.367-0.169,0.782-0.28,1.178-0.288
		c2.49-0.124,4.979-0.163,7.458-0.326c1.433-0.095,2.876-0.287,4.268-0.621c0.417-0.103,0.854-0.763,1.006-1.25
		c0.782-2.652,1.504-5.322,2.186-7.996c0.6-2.387,0.934-4.846,1.697-7.186c0.659-2.031,1.604-4.023,2.682-5.883
		c0.964-1.654,2.702-2.305,4.572-2.609c4.064-0.673,7.865-0.223,11.177,2.467c0.244,0.206,0.508,0.429,0.814,0.51
		c3.535,1.024,3.698,4.43,4.979,7.031c1.29,2.631,2.49,5.292,3.83,7.893c1.149,2.206,2.62,4.258,3.649,6.512
		c1.604,3.554,2.957,7.234,4.42,10.851C125.817,96.051,126.002,96.562,126.276,97.14 M95.711,70.958
		c-0.731,2.948-1.433,5.904-2.205,8.839c-0.264,0.986-0.721,1.933-1.078,2.896c-0.345,0.956,0.234,2.022,1.118,1.963
		c2.256-0.163,4.491-0.398,6.746-0.57c0.752-0.051,0.833-0.326,0.53-0.934c-0.6-1.2-1.3-2.392-1.727-3.651
		c-0.844-2.476-2.41-4.773-2.095-7.588c0.052-0.428-0.142-0.903-0.283-1.332c-0.073-0.185-0.295-0.327-0.448-0.489
		C96.138,70.35,95.996,70.582,95.711,70.958"/>
	<path fill="#040304" d="M150.407,68.623c-0.111,3.239-0.223,6.329-0.337,9.426c-0.008,0.377,0.041,0.763,0.041,1.14
		c0,2.09-0.029,4.187,0.011,6.268c0.029,1.523-0.589,3.271,1.344,4.257c0.324,0.171,0.519,0.741,0.621,1.166
		c0.402,1.645,1.307,2.215,3.085,2.356c1.25,0.103,2.948,0.488,3.59,2.023c0.201,0.466,0.18,1.361-0.123,1.636
		c-1.475,1.354-3.061,2.601-4.653,3.792c-1.415,1.054-2.919,1.37-4.819,1.311c-3.067-0.11-5.86-0.659-8.473-2.185
		c-0.843-0.488-1.574-1.14-2.348-1.74c-0.852-0.659-1.778-1.521-1.278-2.558c0.293-0.621,1.43-1.05,2.253-1.178
		c1.189-0.193,2.43,0.029,3.637-0.104c0.367-0.043,0.986-0.608,0.986-0.934c-0.03-4.015,0.154-8.059-0.323-12.03
		c-0.479-3.92-1.107-7.794-1.14-11.778c-0.03-3.506-0.486-6.989-0.832-10.477c-0.336-3.492-1.047-6.967-1.066-10.463
		c-0.032-2.896,0.701-5.801,1.066-8.698c0.041-0.317-0.072-0.651-0.103-0.977c-0.262,0.043-0.548,0.052-0.792,0.146
		c-2.875,1.113-5.82,0.78-8.495-0.287c-1.656-0.652-2.875-2.357-4.319-3.557c-0.71-0.579-1.513-1.037-2.234-1.593
		c-0.63-0.489-1.23-1.016-1.808-1.578c-0.762-0.749-0.092-1.084,0.486-1.006c0.926,0.146,1.911,0.376,2.684,0.866
		c2.123,1.332,4.257,0.913,6.461,0.377c1.556-0.377,3.119-0.724,4.694-0.977c1.211-0.193,2.45-0.171,3.668-0.313
		c1.22-0.154,1.779-0.947,1.799-2.146c0.012-1.217-0.011-2.43,0-3.646c0.02-1.157,0.56-1.564,1.656-1.148
		c2.083,0.793,4.156,1.525,5.883,3.128c0.999,0.925,2.747,0.998,3.853,1.83c1.156,0.887,1.979,2.206,2.888,3.385
		c0.75,0.985,0.313,2.237-0.338,2.772c-2.315,1.919-2.834,4.786-4.157,7.215c-1.714,3.163-2.742,6.513-2.527,10.202
		c0.141,2.541,0.102,5.09,0,7.618c-0.052,1.436-0.429,2.858-0.54,4.289C150.336,65.816,150.407,67.149,150.407,68.623"/>
</g>
</svg>
